<svg width="96" height="96" viewBox="0 0 96 96" fill="none" xmlns="http://www.w3.org/2000/svg">
<path d="M18.8333 85.5C16.5417 85.5 14.5806 84.6847 12.95 83.0542C11.3194 81.4236 10.5028 79.4611 10.5 77.1667V18.8333C10.5 16.5417 11.3167 14.5806 12.95 12.95C14.5833 11.3194 16.5444 10.5028 18.8333 10.5H77.1667C79.4583 10.5 81.4208 11.3167 83.0542 12.95C84.6875 14.5833 85.5028 16.5444 85.5 18.8333V77.1667C85.5 79.4583 84.6847 81.4208 83.0542 83.0542C81.4236 84.6875 79.4611 85.5028 77.1667 85.5H18.8333ZM18.8333 77.1667H77.1667V18.8333H18.8333V77.1667ZM23 68.8333H73L57.375 48L44.875 64.6667L35.5 52.1667L23 68.8333Z" fill="#51210D"/>
</svg>
