<svg width="17" height="17" viewBox="0 0 17 17" fill="none" xmlns="http://www.w3.org/2000/svg">
<path d="M8.5 8.972L10.664 11.136C10.7262 11.1982 10.8027 11.2316 10.8933 11.236C10.984 11.2404 11.0649 11.2071 11.136 11.136C11.2071 11.0649 11.2427 10.9862 11.2427 10.9C11.2427 10.8138 11.2071 10.7351 11.136 10.664L8.972 8.5L11.136 6.336C11.1982 6.27378 11.2316 6.19733 11.236 6.10667C11.2404 6.016 11.2071 5.93511 11.136 5.864C11.0649 5.79289 10.9862 5.75733 10.9 5.75733C10.8138 5.75733 10.7351 5.79289 10.664 5.864L8.5 8.028L6.336 5.864C6.27378 5.80178 6.19733 5.76844 6.10667 5.764C6.016 5.75956 5.93511 5.79289 5.864 5.864C5.79289 5.93511 5.75733 6.01378 5.75733 6.1C5.75733 6.18622 5.79289 6.26489 5.864 6.336L8.028 8.5L5.864 10.664C5.80178 10.7262 5.76844 10.8029 5.764 10.894C5.75956 10.9842 5.79289 11.0649 5.864 11.136C5.93511 11.2071 6.01378 11.2427 6.1 11.2427C6.18622 11.2427 6.26489 11.2071 6.336 11.136L8.5 8.972ZM8.502 14.5C7.67222 14.5 6.89222 14.3427 6.162 14.028C5.43178 13.7129 4.79644 13.2853 4.256 12.7453C3.71556 12.2053 3.28778 11.5707 2.97267 10.8413C2.65756 10.112 2.5 9.33222 2.5 8.502C2.5 7.67178 2.65756 6.89178 2.97267 6.162C3.28733 5.43178 3.71422 4.79644 4.25333 4.256C4.79244 3.71556 5.42733 3.28778 6.158 2.97267C6.88867 2.65756 7.66867 2.5 8.498 2.5C9.32733 2.5 10.1073 2.65756 10.838 2.97267C11.5682 3.28733 12.2036 3.71444 12.744 4.254C13.2844 4.79356 13.7122 5.42844 14.0273 6.15867C14.3424 6.88889 14.5 7.66867 14.5 8.498C14.5 9.32733 14.3427 10.1073 14.028 10.838C13.7133 11.5687 13.2858 12.204 12.7453 12.744C12.2049 13.284 11.5702 13.7118 10.8413 14.0273C10.1124 14.3429 9.33267 14.5004 8.502 14.5ZM8.5 13.8333C9.98889 13.8333 11.25 13.3167 12.2833 12.2833C13.3167 11.25 13.8333 9.98889 13.8333 8.5C13.8333 7.01111 13.3167 5.75 12.2833 4.71667C11.25 3.68333 9.98889 3.16667 8.5 3.16667C7.01111 3.16667 5.75 3.68333 4.71667 4.71667C3.68333 5.75 3.16667 7.01111 3.16667 8.5C3.16667 9.98889 3.68333 11.25 4.71667 12.2833C5.75 13.3167 7.01111 13.8333 8.5 13.8333Z" fill="#51210D"/>
</svg>
